# xmcd CD database file
# Copyright (C) 1995-1998 Ti Kan
#
# Track frame offsets:
#	150
#	17315
#	27250
#	42302
#	64920
#	81667
#	98327
#	117677
#	133545
#	151032
#	163380
#	174412
#
# Disc length: 2497 seconds
#
# Revision: 1
# Processed by: cddbd v1.4PL0 Copyright (c) Steve Scherf et al.
# Submitted via: CDex 1.30Release
#
DISCID=9509bf0c
DTITLE=The Goods - So Many Roads
DYEAR=1994
DGENRE=Country
TTITLE0=That's What Highways Are For
TTITLE1=Rag Top Momma
TTITLE2=The Shape I'm In
TTITLE3=Against The Wind
TTITLE4=Don't Know Much About Love
TTITLE5=Fox On The Run
TTITLE6=Dancin' Round And Round
TTITLE7=I Really Dug Myself A Hole This Time
TTITLE8=Alberta Bound
TTITLE9=I Lived It Up Last Night
TTITLE10=A Time And A Place
TTITLE11=Highway Patrol
EXTD=YEAR: 1994 ID3G:   2
EXTT0=
EXTT1=
EXTT2=
EXTT3=
EXTT4=
EXTT5=
EXTT6=
EXTT7=
EXTT8=
EXTT9=
EXTT10=
EXTT11=
PLAYORDER=
